<?xml version="1.0" encoding="utf-8"?>
<!-- Generator: Adobe Illustrator 22.1.0, SVG Export Plug-In . SVG Version: 6.00 Build 0)  -->
<svg version="1.1" id="Layer_1" xmlns="http://www.w3.org/2000/svg" xmlns:xlink="http://www.w3.org/1999/xlink" x="0px" y="0px"
	 viewBox="0 0 64.5 64.2" style="enable-background:new 0 0 64.5 64.2;" xml:space="preserve">
<style type="text/css">
	.st0{fill:url(#SVGID_1_);}
	.st1{fill:url(#SVGID_2_);}
	.st2{fill:url(#SVGID_3_);}
	.st3{fill:url(#SVGID_4_);}
	.st4{fill:url(#SVGID_5_);}
	.st5{fill:url(#SVGID_6_);}
	.st6{fill:url(#SVGID_7_);}
	.st7{fill:url(#SVGID_8_);}
	.st8{fill:url(#SVGID_9_);}
	.st9{fill:url(#SVGID_10_);}
	.st10{fill:url(#SVGID_11_);}
	.st11{fill:url(#SVGID_12_);}
	.st12{fill:url(#SVGID_13_);}
	.st13{fill:url(#SVGID_14_);}
	.st14{fill:url(#SVGID_15_);}
	.st15{fill:url(#SVGID_16_);}
	.st16{fill:url(#SVGID_17_);}
	.st17{fill:url(#SVGID_18_);}
	.st18{fill:url(#SVGID_19_);}
	.st19{fill:url(#SVGID_20_);}
	.st20{fill:url(#SVGID_21_);}
</style>
<g>
	<linearGradient id="SVGID_1_" gradientUnits="userSpaceOnUse" x1="1.8608" y1="32.0752" x2="62.3414" y2="32.0752">
		<stop  offset="0" style="stop-color:#B5AC49"/>
		<stop  offset="1" style="stop-color:#3CA55C"/>
	</linearGradient>
	<path class="st0" d="M61.6,60.8h-1.4V12.7c0-0.3-0.1-0.5-0.3-0.6c-0.2-0.1-0.5-0.2-0.7-0.1l-10.8,4.6V9.9c0-0.4-0.3-0.8-0.8-0.8
		h-7.1V2.6c0-0.4-0.3-0.8-0.8-0.8c-0.4,0-0.8,0.3-0.8,0.8v6.5h-7.4c-0.4,0-0.8,0.3-0.8,0.8v16.3h-3.2v-2.1c0-0.4-0.3-0.8-0.8-0.8
		H5.4c-0.4,0-0.8,0.3-0.8,0.8v20.3c-0.4,0-0.7,0.3-0.7,0.7v15.7H2.6c-0.4,0-0.8,0.3-0.8,0.8c0,0.4,0.3,0.8,0.8,0.8h59
		c0.4,0,0.8-0.3,0.8-0.8C62.3,61.1,62,60.8,61.6,60.8z M58.7,60.8H39.9v-39l18.8-8V60.8z M46.9,10.6v5.8H32.4v-5.8H46.9z M32.4,17.9
		h12.9l-6.5,2.8c-0.3,0.1-0.5,0.4-0.5,0.7v4.8h-6V17.9z M38.4,27.7v33.1h-10V45.1c0-0.4-0.3-0.7-0.7-0.7V27.7H38.4z M26.1,24.8v19.5
		H6.2V24.8H26.1z M5.5,45.8h21.3v15h-5.5v-7.6c0-0.4-0.3-0.8-0.8-0.8h-8.8c-0.4,0-0.8,0.3-0.8,0.8v7.6H5.5V45.8z M19.8,60.8h-7.3V54
		h7.3V60.8z"/>
	<linearGradient id="SVGID_2_" gradientUnits="userSpaceOnUse" x1="10.1769" y1="29.4609" x2="22.2169" y2="29.4609">
		<stop  offset="0" style="stop-color:#B5AC49"/>
		<stop  offset="1" style="stop-color:#3CA55C"/>
	</linearGradient>
	<path class="st1" d="M10.9,30.2h10.5c0.4,0,0.8-0.3,0.8-0.8s-0.3-0.8-0.8-0.8H10.9c-0.4,0-0.8,0.3-0.8,0.8S10.5,30.2,10.9,30.2z"/>
	<linearGradient id="SVGID_3_" gradientUnits="userSpaceOnUse" x1="10.1769" y1="34.7212" x2="22.2169" y2="34.7212">
		<stop  offset="0" style="stop-color:#B5AC49"/>
		<stop  offset="1" style="stop-color:#3CA55C"/>
	</linearGradient>
	<path class="st2" d="M10.9,35.5h10.5c0.4,0,0.8-0.3,0.8-0.8c0-0.4-0.3-0.8-0.8-0.8H10.9c-0.4,0-0.8,0.3-0.8,0.8
		C10.2,35.1,10.5,35.5,10.9,35.5z"/>
	<linearGradient id="SVGID_4_" gradientUnits="userSpaceOnUse" x1="10.1769" y1="39.9823" x2="22.2169" y2="39.9823">
		<stop  offset="0" style="stop-color:#B5AC49"/>
		<stop  offset="1" style="stop-color:#3CA55C"/>
	</linearGradient>
	<path class="st3" d="M10.9,40.7h10.5c0.4,0,0.8-0.3,0.8-0.8c0-0.4-0.3-0.8-0.8-0.8H10.9c-0.4,0-0.8,0.3-0.8,0.8
		C10.2,40.4,10.5,40.7,10.9,40.7z"/>
	<linearGradient id="SVGID_5_" gradientUnits="userSpaceOnUse" x1="43.1245" y1="37.6685" x2="55.451" y2="37.6685">
		<stop  offset="0" style="stop-color:#B5AC49"/>
		<stop  offset="1" style="stop-color:#3CA55C"/>
	</linearGradient>
	<path class="st4" d="M43.9,38.4h10.8c0.4,0,0.8-0.3,0.8-0.8c0-0.4-0.3-0.8-0.8-0.8H43.9c-0.4,0-0.8,0.3-0.8,0.8
		C43.1,38.1,43.5,38.4,43.9,38.4z"/>
	<linearGradient id="SVGID_6_" gradientUnits="userSpaceOnUse" x1="30.5418" y1="33.059" x2="32.0538" y2="33.059">
		<stop  offset="0" style="stop-color:#B5AC49"/>
		<stop  offset="1" style="stop-color:#3CA55C"/>
	</linearGradient>
	<path class="st5" d="M31.3,34.8c0.4,0,0.8-0.3,0.8-0.8v-2c0-0.4-0.3-0.8-0.8-0.8s-0.8,0.3-0.8,0.8v2C30.5,34.5,30.9,34.8,31.3,34.8
		z"/>
	<linearGradient id="SVGID_7_" gradientUnits="userSpaceOnUse" x1="34.1631" y1="33.059" x2="35.6751" y2="33.059">
		<stop  offset="0" style="stop-color:#B5AC49"/>
		<stop  offset="1" style="stop-color:#3CA55C"/>
	</linearGradient>
	<path class="st6" d="M34.9,34.8c0.4,0,0.8-0.3,0.8-0.8v-2c0-0.4-0.3-0.8-0.8-0.8c-0.4,0-0.8,0.3-0.8,0.8v2
		C34.2,34.5,34.5,34.8,34.9,34.8z"/>
	<linearGradient id="SVGID_8_" gradientUnits="userSpaceOnUse" x1="30.5418" y1="38.6526" x2="32.0538" y2="38.6526">
		<stop  offset="0" style="stop-color:#B5AC49"/>
		<stop  offset="1" style="stop-color:#3CA55C"/>
	</linearGradient>
	<path class="st7" d="M31.3,40.4c0.4,0,0.8-0.3,0.8-0.8v-2c0-0.4-0.3-0.8-0.8-0.8s-0.8,0.3-0.8,0.8v2C30.5,40.1,30.9,40.4,31.3,40.4
		z"/>
	<linearGradient id="SVGID_9_" gradientUnits="userSpaceOnUse" x1="34.1631" y1="38.6526" x2="35.6751" y2="38.6526">
		<stop  offset="0" style="stop-color:#B5AC49"/>
		<stop  offset="1" style="stop-color:#3CA55C"/>
	</linearGradient>
	<path class="st8" d="M34.9,40.4c0.4,0,0.8-0.3,0.8-0.8v-2c0-0.4-0.3-0.8-0.8-0.8c-0.4,0-0.8,0.3-0.8,0.8v2
		C34.2,40.1,34.5,40.4,34.9,40.4z"/>
	<linearGradient id="SVGID_10_" gradientUnits="userSpaceOnUse" x1="30.5418" y1="44.2463" x2="32.0538" y2="44.2463">
		<stop  offset="0" style="stop-color:#B5AC49"/>
		<stop  offset="1" style="stop-color:#3CA55C"/>
	</linearGradient>
	<path class="st9" d="M31.3,46c0.4,0,0.8-0.3,0.8-0.8v-2c0-0.4-0.3-0.8-0.8-0.8s-0.8,0.3-0.8,0.8v2C30.5,45.6,30.9,46,31.3,46z"/>
	<linearGradient id="SVGID_11_" gradientUnits="userSpaceOnUse" x1="34.1631" y1="44.2463" x2="35.6751" y2="44.2463">
		<stop  offset="0" style="stop-color:#B5AC49"/>
		<stop  offset="1" style="stop-color:#3CA55C"/>
	</linearGradient>
	<path class="st10" d="M34.9,46c0.4,0,0.8-0.3,0.8-0.8v-2c0-0.4-0.3-0.8-0.8-0.8c-0.4,0-0.8,0.3-0.8,0.8v2
		C34.2,45.6,34.5,46,34.9,46z"/>
	<linearGradient id="SVGID_12_" gradientUnits="userSpaceOnUse" x1="30.5418" y1="49.8403" x2="32.0538" y2="49.8403">
		<stop  offset="0" style="stop-color:#B5AC49"/>
		<stop  offset="1" style="stop-color:#3CA55C"/>
	</linearGradient>
	<path class="st11" d="M31.3,51.6c0.4,0,0.8-0.3,0.8-0.8v-2c0-0.4-0.3-0.8-0.8-0.8s-0.8,0.3-0.8,0.8v2
		C30.5,51.2,30.9,51.6,31.3,51.6z"/>
	<linearGradient id="SVGID_13_" gradientUnits="userSpaceOnUse" x1="34.1631" y1="49.8403" x2="35.6751" y2="49.8403">
		<stop  offset="0" style="stop-color:#B5AC49"/>
		<stop  offset="1" style="stop-color:#3CA55C"/>
	</linearGradient>
	<path class="st12" d="M34.9,51.6c0.4,0,0.8-0.3,0.8-0.8v-2c0-0.4-0.3-0.8-0.8-0.8c-0.4,0-0.8,0.3-0.8,0.8v2
		C34.2,51.2,34.5,51.6,34.9,51.6z"/>
	<linearGradient id="SVGID_14_" gradientUnits="userSpaceOnUse" x1="30.5418" y1="55.4339" x2="32.0538" y2="55.4339">
		<stop  offset="0" style="stop-color:#B5AC49"/>
		<stop  offset="1" style="stop-color:#3CA55C"/>
	</linearGradient>
	<path class="st13" d="M31.3,57.2c0.4,0,0.8-0.3,0.8-0.8v-2c0-0.4-0.3-0.8-0.8-0.8s-0.8,0.3-0.8,0.8v2
		C30.5,56.8,30.9,57.2,31.3,57.2z"/>
	<linearGradient id="SVGID_15_" gradientUnits="userSpaceOnUse" x1="34.1631" y1="55.4339" x2="35.6751" y2="55.4339">
		<stop  offset="0" style="stop-color:#B5AC49"/>
		<stop  offset="1" style="stop-color:#3CA55C"/>
	</linearGradient>
	<path class="st14" d="M34.9,57.2c0.4,0,0.8-0.3,0.8-0.8v-2c0-0.4-0.3-0.8-0.8-0.8c-0.4,0-0.8,0.3-0.8,0.8v2
		C34.2,56.8,34.5,57.2,34.9,57.2z"/>
	<linearGradient id="SVGID_16_" gradientUnits="userSpaceOnUse" x1="43.1245" y1="42.2045" x2="55.451" y2="42.2045">
		<stop  offset="0" style="stop-color:#B5AC49"/>
		<stop  offset="1" style="stop-color:#3CA55C"/>
	</linearGradient>
	<path class="st15" d="M43.9,43h10.8c0.4,0,0.8-0.3,0.8-0.8c0-0.4-0.3-0.8-0.8-0.8H43.9c-0.4,0-0.8,0.3-0.8,0.8
		C43.1,42.6,43.5,43,43.9,43z"/>
	<linearGradient id="SVGID_17_" gradientUnits="userSpaceOnUse" x1="43.1245" y1="46.7406" x2="55.451" y2="46.7406">
		<stop  offset="0" style="stop-color:#B5AC49"/>
		<stop  offset="1" style="stop-color:#3CA55C"/>
	</linearGradient>
	<path class="st16" d="M43.9,47.5h10.8c0.4,0,0.8-0.3,0.8-0.8c0-0.4-0.3-0.8-0.8-0.8H43.9c-0.4,0-0.8,0.3-0.8,0.8
		C43.1,47.2,43.5,47.5,43.9,47.5z"/>
	<linearGradient id="SVGID_18_" gradientUnits="userSpaceOnUse" x1="43.1245" y1="28.5225" x2="55.451" y2="28.5225">
		<stop  offset="0" style="stop-color:#B5AC49"/>
		<stop  offset="1" style="stop-color:#3CA55C"/>
	</linearGradient>
	<path class="st17" d="M43.9,29.3h10.8c0.4,0,0.8-0.3,0.8-0.8s-0.3-0.8-0.8-0.8H43.9c-0.4,0-0.8,0.3-0.8,0.8S43.5,29.3,43.9,29.3z"
		/>
	<linearGradient id="SVGID_19_" gradientUnits="userSpaceOnUse" x1="43.1245" y1="33.0586" x2="55.451" y2="33.0586">
		<stop  offset="0" style="stop-color:#B5AC49"/>
		<stop  offset="1" style="stop-color:#3CA55C"/>
	</linearGradient>
	<path class="st18" d="M43.9,33.8h10.8c0.4,0,0.8-0.3,0.8-0.8c0-0.4-0.3-0.8-0.8-0.8H43.9c-0.4,0-0.8,0.3-0.8,0.8
		C43.1,33.5,43.5,33.8,43.9,33.8z"/>
	<linearGradient id="SVGID_20_" gradientUnits="userSpaceOnUse" x1="43.1245" y1="51.2766" x2="55.451" y2="51.2766">
		<stop  offset="0" style="stop-color:#B5AC49"/>
		<stop  offset="1" style="stop-color:#3CA55C"/>
	</linearGradient>
	<path class="st19" d="M43.9,52h10.8c0.4,0,0.8-0.3,0.8-0.8c0-0.4-0.3-0.8-0.8-0.8H43.9c-0.4,0-0.8,0.3-0.8,0.8
		C43.1,51.7,43.5,52,43.9,52z"/>
	<linearGradient id="SVGID_21_" gradientUnits="userSpaceOnUse" x1="43.1245" y1="55.8127" x2="55.451" y2="55.8127">
		<stop  offset="0" style="stop-color:#B5AC49"/>
		<stop  offset="1" style="stop-color:#3CA55C"/>
	</linearGradient>
	<path class="st20" d="M43.9,56.6h10.8c0.4,0,0.8-0.3,0.8-0.8c0-0.4-0.3-0.8-0.8-0.8H43.9c-0.4,0-0.8,0.3-0.8,0.8
		C43.1,56.2,43.5,56.6,43.9,56.6z"/>
</g>
</svg>
