<?xml version="1.0" encoding="utf-8"?>
<!-- Generator: Adobe Illustrator 22.1.0, SVG Export Plug-In . SVG Version: 6.00 Build 0)  -->
<svg version="1.1" id="Layer_1" xmlns="http://www.w3.org/2000/svg" xmlns:xlink="http://www.w3.org/1999/xlink" x="0px" y="0px"
	 viewBox="0 0 150 150" style="enable-background:new 0 0 150 150;" xml:space="preserve">
<style type="text/css">
	.st0{fill:url(#SVGID_1_);}
	.st1{fill:url(#SVGID_2_);}
	.st2{fill:url(#SVGID_3_);}
	.st3{fill:url(#SVGID_4_);}
	.st4{fill:url(#SVGID_5_);}
	.st5{fill:url(#SVGID_6_);}
	.st6{fill:url(#SVGID_7_);}
	.st7{fill:url(#SVGID_8_);}
	.st8{fill:url(#SVGID_9_);}
	.st9{fill:url(#SVGID_10_);}
	.st10{fill:url(#SVGID_11_);}
	.st11{fill:url(#SVGID_12_);}
	.st12{fill:url(#SVGID_13_);}
	.st13{fill:url(#SVGID_14_);}
	.st14{fill:url(#SVGID_15_);}
	.st15{fill:url(#SVGID_16_);}
	.st16{fill:url(#SVGID_17_);}
	.st17{fill:url(#SVGID_18_);}
	.st18{fill:url(#SVGID_19_);}
	.st19{fill:url(#SVGID_20_);}
	.st20{fill:url(#SVGID_21_);}
	.st21{fill:url(#SVGID_22_);}
	.st22{fill:url(#SVGID_23_);}
	.st23{fill:url(#SVGID_24_);}
	.st24{fill:url(#SVGID_25_);}
</style>
<g>
	<linearGradient id="SVGID_1_" gradientUnits="userSpaceOnUse" x1="15.9724" y1="75" x2="134.5276" y2="75">
		<stop  offset="0" style="stop-color:#B5AC49"/>
		<stop  offset="1" style="stop-color:#3CA55C"/>
	</linearGradient>
	<path class="st0" d="M98.8,34.9c-0.9-0.4-2,0-2.4,0.9c-0.4,0.9,0,2,0.9,2.4c20.4,8.8,33.6,28.9,33.6,51.1c0,1.9-0.1,3.9-0.3,5.8
		h-15.5V71.5c0-1-0.8-1.8-1.8-1.8H96.9v-1.8h14.5c1,0,1.8-0.8,1.8-1.8c0-1-0.8-1.8-1.8-1.8H106c0,0,0,0,0,0l0.5-2.9
		c0.1-0.5-0.1-1.1-0.4-1.5c-0.3-0.4-0.9-0.6-1.4-0.6h-1c-0.5,0-1,0.2-1.4,0.6c-0.3,0.4-0.5,1-0.4,1.5l0.5,2.9c0,0,0,0,0,0h-5.5v-5.4
		c1,0,1.8-0.8,1.8-1.8s-0.8-1.8-1.8-1.8v-3.6c0-0.9-0.7-1.6-1.6-1.8c0.3-0.3,0.4-0.7,0.4-1.1c0-0.2,0-0.5-0.1-0.7l-0.6-3.5
		c-0.2-0.9-0.9-1.5-1.8-1.5c-0.9,0-1.6,0.6-1.8,1.5l-0.7,3.9c-0.1,0.5,0.1,1,0.4,1.4H86V22.5c1,0,1.8-0.8,1.8-1.8
		c0-1.9-0.6-4.6-1.4-6.2c-0.3-0.6-0.9-1-1.6-1h-0.3C83,10.9,80.5,9,77.7,8.3L78,3.9c0-0.7-0.3-1.4-0.9-1.7l-1-0.6
		c-0.6-0.3-1.3-0.3-1.8,0l-1,0.6c-0.6,0.3-0.9,1-0.9,1.7l0.3,4.4c-2.8,0.7-5.3,2.6-6.8,5.1h-0.3c-0.7,0-1.3,0.4-1.6,1
		c-0.8,1.6-1.4,4.4-1.4,6.2c0,1,0.8,1.8,1.8,1.8v27.2h-5c0.2-0.3,0.3-0.6,0.3-0.9c0-0.2,0-0.5-0.1-0.7l-0.6-3.5
		c-0.2-0.9-0.9-1.5-1.8-1.5s-1.6,0.6-1.8,1.5l-0.7,3.9c-0.1,0.5,0,0.9,0.3,1.3c-0.8,0.2-1.5,0.9-1.5,1.8v3.6c-1,0-1.8,0.8-1.8,1.8
		s0.8,1.8,1.8,1.8v5.4h-5.5c0,0,0,0,0,0l0.5-2.9c0.1-0.5-0.1-1.1-0.4-1.5c-0.3-0.4-0.9-0.6-1.4-0.6h-1c-0.5,0-1,0.2-1.4,0.6
		c-0.3,0.4-0.5,1-0.4,1.5l0.5,2.9c0,0,0,0,0,0h-5.5c-1,0-1.8,0.8-1.8,1.8c0,1,0.8,1.8,1.8,1.8h14.5v1.8H37c-1,0-1.8,0.8-1.8,1.8
		v23.6H19.9c-0.2-1.9-0.3-3.8-0.3-5.8c0-22.2,13.2-42.2,33.5-51.1c0.9-0.4,1.3-1.5,0.9-2.4c-0.4-0.9-1.5-1.3-2.4-0.9
		C30,44.3,16,65.7,16,89.3c0,32.7,26.6,59.3,59.3,59.3c32.7,0,59.3-26.6,59.3-59.3C134.5,65.6,120.5,44.3,98.8,34.9z M75.2,11.6
		c1.7,0,3.3,0.7,4.7,1.8l-9.4,0C71.8,12.3,73.5,11.6,75.2,11.6z M129.6,100.5H96.9v-1.8h16.3h16.3v1.6
		C129.6,100.4,129.6,100.5,129.6,100.5z M89.7,143v-20.8c0-1-0.8-1.8-1.8-1.8h-3.6c-1,0-1.8,0.8-1.8,1.8v22.2
		c-1.2,0.2-2.4,0.3-3.6,0.4v-22.5c0-1-0.8-1.8-1.8-1.8h-3.6c-1,0-1.8,0.8-1.8,1.8v22.5c-1.2-0.1-2.4-0.2-3.6-0.4v-22.2
		c0-1-0.8-1.8-1.8-1.8h-3.6c-1,0-1.8,0.8-1.8,1.8V143c-1.2-0.3-2.4-0.7-3.6-1.1v-45v-20h36.3v20v45C92.1,142.3,90.9,142.7,89.7,143z
		 M102.4,91.4h3.6v3.6h-3.6V91.4z M102.4,87.8c0-1,0.8-1.8,1.8-1.8c1,0,1.8,0.8,1.8,1.8H102.4z M111.5,73.3v21.8h-1.8v-7.3
		c0-3-2.4-5.4-5.4-5.4c-3,0-5.4,2.4-5.4,5.4v7.3h-1.8V73.3H111.5z M82.4,42.4h-1.8v-20h1.8V42.4z M73.3,42.4v-20H77v20H73.3z
		 M66.7,17l16.8,0c0.2,0.6,0.3,1.2,0.5,1.8H66.3C66.4,18.2,66.6,17.6,66.7,17z M69.7,22.5v20h-1.8v-20H69.7z M67.9,46.1h14.5v3.6
		H67.9V46.1z M57,53.3h9.1h18.1h9.1v1.8H57V53.3z M93.3,58.8v12.7v1.8H57v-1.8V58.8H93.3z M38.9,73.3h14.5v21.8h-1.8v-7.3
		c0-3-2.4-5.4-5.4-5.4s-5.4,2.4-5.4,5.4v7.3h-1.8V73.3z M44.3,95.1v-3.6h3.6v3.6H44.3z M44.3,87.8c0-1,0.8-1.8,1.8-1.8
		s1.8,0.8,1.8,1.8H44.3z M20.7,100.3v-1.6H37h16.3v1.8H20.7C20.7,100.5,20.7,100.4,20.7,100.3C20.7,100.3,20.7,100.3,20.7,100.3z
		 M29.8,121.3v-0.9c0-1-0.8-1.8-1.8-1.8c-0.7-1.2-1.4-2.4-2.1-3.6h2c1,0,1.8-0.8,1.8-1.8s-0.8-1.8-1.8-1.8h-3.6c0,0-0.1,0-0.1,0
		c-0.3-0.7-0.6-1.5-0.9-2.2c0.3,0.2,0.6,0.4,1,0.4H28c1,0,1.8-0.8,1.8-1.8S29,106,28,106h-3.6c-0.8,0-1.5,0.6-1.7,1.4
		c-0.4-1-0.7-2.1-1-3.2h31.8v36.3c-0.6-0.3-1.2-0.5-1.8-0.8v-19.2c0-1-0.8-1.8-1.8-1.8h-3.6c-1,0-1.8,0.8-1.8,1.8v15.1
		c-1.2-0.8-2.5-1.7-3.6-2.7v-12.4c0-1-0.8-1.8-1.8-1.8h-3.6c-1,0-1.8,0.8-1.8,1.8v5.5C32.1,124.5,30.9,122.9,29.8,121.3z
		 M113.3,129.9v-0.2C113.3,129.8,113.3,129.8,113.3,129.9C113.3,129.9,113.3,129.9,113.3,129.9z M116.9,126.2v-5.7
		c0-1-0.8-1.8-1.8-1.8h-3.6c-1,0-1.8,0.8-1.8,1.8V133c-1.2,0.9-2.4,1.8-3.6,2.6v-15.2c0-1-0.8-1.8-1.8-1.8h-3.6
		c-1,0-1.8,0.8-1.8,1.8v19.3c-0.6,0.3-1.2,0.6-1.8,0.8v-36.4h31.9c-0.3,1.2-0.7,2.4-1.1,3.5c-0.1-1-0.8-1.7-1.8-1.7h-3.6
		c-1,0-1.8,0.8-1.8,1.8s0.8,1.8,1.8,1.8h3.6c0.5,0,1-0.2,1.3-0.5c-0.3,0.8-0.6,1.6-1,2.4c-0.1,0-0.2-0.1-0.3-0.1h-3.6
		c-1,0-1.8,0.8-1.8,1.8s0.8,1.8,1.8,1.8h2.2c-0.6,1.2-1.3,2.4-2.1,3.6h-0.1c-1,0-1.8,0.8-1.8,1.8v1.1c0,0,0,0,0,0
		C119.4,123.2,118.2,124.7,116.9,126.2z"/>
	<linearGradient id="SVGID_2_" gradientUnits="userSpaceOnUse" x1="40.6708" y1="77.8251" x2="44.3008" y2="77.8251">
		<stop  offset="0" style="stop-color:#B5AC49"/>
		<stop  offset="1" style="stop-color:#3CA55C"/>
	</linearGradient>
	<path class="st1" d="M42.5,80.5c1,0,1.8-0.8,1.8-1.8v-1.8c0-1-0.8-1.8-1.8-1.8c-1,0-1.8,0.8-1.8,1.8v1.8
		C40.7,79.7,41.5,80.5,42.5,80.5z"/>
	<linearGradient id="SVGID_3_" gradientUnits="userSpaceOnUse" x1="47.9307" y1="77.8251" x2="51.5607" y2="77.8251">
		<stop  offset="0" style="stop-color:#B5AC49"/>
		<stop  offset="1" style="stop-color:#3CA55C"/>
	</linearGradient>
	<path class="st2" d="M49.7,80.5c1,0,1.8-0.8,1.8-1.8v-1.8c0-1-0.8-1.8-1.8-1.8c-1,0-1.8,0.8-1.8,1.8v1.8
		C47.9,79.7,48.7,80.5,49.7,80.5z"/>
	<linearGradient id="SVGID_4_" gradientUnits="userSpaceOnUse" x1="98.7505" y1="77.8251" x2="102.3805" y2="77.8251">
		<stop  offset="0" style="stop-color:#B5AC49"/>
		<stop  offset="1" style="stop-color:#3CA55C"/>
	</linearGradient>
	<path class="st3" d="M100.6,80.5c1,0,1.8-0.8,1.8-1.8v-1.8c0-1-0.8-1.8-1.8-1.8c-1,0-1.8,0.8-1.8,1.8v1.8
		C98.8,79.7,99.6,80.5,100.6,80.5z"/>
	<linearGradient id="SVGID_5_" gradientUnits="userSpaceOnUse" x1="106.0105" y1="77.8251" x2="109.6405" y2="77.8251">
		<stop  offset="0" style="stop-color:#B5AC49"/>
		<stop  offset="1" style="stop-color:#3CA55C"/>
	</linearGradient>
	<path class="st4" d="M107.8,80.5c1,0,1.8-0.8,1.8-1.8v-1.8c0-1-0.8-1.8-1.8-1.8s-1.8,0.8-1.8,1.8v1.8
		C106,79.7,106.8,80.5,107.8,80.5z"/>
	<linearGradient id="SVGID_6_" gradientUnits="userSpaceOnUse" x1="71.5256" y1="69.6576" x2="78.7856" y2="69.6576">
		<stop  offset="0" style="stop-color:#B5AC49"/>
		<stop  offset="1" style="stop-color:#3CA55C"/>
	</linearGradient>
	<path class="st5" d="M73.3,71.5H77c1,0,1.8-0.8,1.8-1.8c0-1-0.8-1.8-1.8-1.8h-3.6c-1,0-1.8,0.8-1.8,1.8
		C71.5,70.7,72.3,71.5,73.3,71.5z"/>
	<linearGradient id="SVGID_7_" gradientUnits="userSpaceOnUse" x1="71.5256" y1="64.2126" x2="78.7856" y2="64.2126">
		<stop  offset="0" style="stop-color:#B5AC49"/>
		<stop  offset="1" style="stop-color:#3CA55C"/>
	</linearGradient>
	<path class="st6" d="M73.3,66H77c1,0,1.8-0.8,1.8-1.8c0-1-0.8-1.8-1.8-1.8h-3.6c-1,0-1.8,0.8-1.8,1.8C71.5,65.2,72.3,66,73.3,66z"
		/>
	<linearGradient id="SVGID_8_" gradientUnits="userSpaceOnUse" x1="60.6357" y1="64.2126" x2="67.8956" y2="64.2126">
		<stop  offset="0" style="stop-color:#B5AC49"/>
		<stop  offset="1" style="stop-color:#3CA55C"/>
	</linearGradient>
	<path class="st7" d="M62.5,66h3.6c1,0,1.8-0.8,1.8-1.8c0-1-0.8-1.8-1.8-1.8h-3.6c-1,0-1.8,0.8-1.8,1.8C60.6,65.2,61.4,66,62.5,66z"
		/>
	<linearGradient id="SVGID_9_" gradientUnits="userSpaceOnUse" x1="60.6357" y1="69.6576" x2="67.8956" y2="69.6576">
		<stop  offset="0" style="stop-color:#B5AC49"/>
		<stop  offset="1" style="stop-color:#3CA55C"/>
	</linearGradient>
	<path class="st8" d="M62.5,71.5h3.6c1,0,1.8-0.8,1.8-1.8c0-1-0.8-1.8-1.8-1.8h-3.6c-1,0-1.8,0.8-1.8,1.8
		C60.6,70.7,61.4,71.5,62.5,71.5z"/>
	<linearGradient id="SVGID_10_" gradientUnits="userSpaceOnUse" x1="82.4156" y1="69.6576" x2="89.6756" y2="69.6576">
		<stop  offset="0" style="stop-color:#B5AC49"/>
		<stop  offset="1" style="stop-color:#3CA55C"/>
	</linearGradient>
	<path class="st9" d="M84.2,71.5h3.6c1,0,1.8-0.8,1.8-1.8c0-1-0.8-1.8-1.8-1.8h-3.6c-1,0-1.8,0.8-1.8,1.8
		C82.4,70.7,83.2,71.5,84.2,71.5z"/>
	<linearGradient id="SVGID_11_" gradientUnits="userSpaceOnUse" x1="71.5256" y1="80.5476" x2="78.7856" y2="80.5476">
		<stop  offset="0" style="stop-color:#B5AC49"/>
		<stop  offset="1" style="stop-color:#3CA55C"/>
	</linearGradient>
	<path class="st10" d="M77,78.7h-3.6c-1,0-1.8,0.8-1.8,1.8s0.8,1.8,1.8,1.8H77c1,0,1.8-0.8,1.8-1.8S78,78.7,77,78.7z"/>
	<linearGradient id="SVGID_12_" gradientUnits="userSpaceOnUse" x1="60.6357" y1="80.5476" x2="67.8956" y2="80.5476">
		<stop  offset="0" style="stop-color:#B5AC49"/>
		<stop  offset="1" style="stop-color:#3CA55C"/>
	</linearGradient>
	<path class="st11" d="M66.1,78.7h-3.6c-1,0-1.8,0.8-1.8,1.8s0.8,1.8,1.8,1.8h3.6c1,0,1.8-0.8,1.8-1.8S67.1,78.7,66.1,78.7z"/>
	<linearGradient id="SVGID_13_" gradientUnits="userSpaceOnUse" x1="82.4156" y1="80.5476" x2="89.6756" y2="80.5476">
		<stop  offset="0" style="stop-color:#B5AC49"/>
		<stop  offset="1" style="stop-color:#3CA55C"/>
	</linearGradient>
	<path class="st12" d="M87.9,78.7h-3.6c-1,0-1.8,0.8-1.8,1.8s0.8,1.8,1.8,1.8h3.6c1,0,1.8-0.8,1.8-1.8S88.9,78.7,87.9,78.7z"/>
	<linearGradient id="SVGID_14_" gradientUnits="userSpaceOnUse" x1="60.6357" y1="101.42" x2="67.8956" y2="101.42">
		<stop  offset="0" style="stop-color:#B5AC49"/>
		<stop  offset="1" style="stop-color:#3CA55C"/>
	</linearGradient>
	<path class="st13" d="M66.1,86h-3.6c-1,0-1.8,0.8-1.8,1.8V115c0,1,0.8,1.8,1.8,1.8h3.6c1,0,1.8-0.8,1.8-1.8V87.8
		C67.9,86.8,67.1,86,66.1,86z"/>
	<linearGradient id="SVGID_15_" gradientUnits="userSpaceOnUse" x1="71.5256" y1="101.42" x2="78.7856" y2="101.42">
		<stop  offset="0" style="stop-color:#B5AC49"/>
		<stop  offset="1" style="stop-color:#3CA55C"/>
	</linearGradient>
	<path class="st14" d="M77,86h-3.6c-1,0-1.8,0.8-1.8,1.8V115c0,1,0.8,1.8,1.8,1.8H77c1,0,1.8-0.8,1.8-1.8V87.8
		C78.8,86.8,78,86,77,86z"/>
	<linearGradient id="SVGID_16_" gradientUnits="userSpaceOnUse" x1="82.4156" y1="101.42" x2="89.6756" y2="101.42">
		<stop  offset="0" style="stop-color:#B5AC49"/>
		<stop  offset="1" style="stop-color:#3CA55C"/>
	</linearGradient>
	<path class="st15" d="M87.9,86h-3.6c-1,0-1.8,0.8-1.8,1.8V115c0,1,0.8,1.8,1.8,1.8h3.6c1,0,1.8-0.8,1.8-1.8V87.8
		C89.7,86.8,88.9,86,87.9,86z"/>
	<linearGradient id="SVGID_17_" gradientUnits="userSpaceOnUse" x1="82.4156" y1="64.2126" x2="89.6756" y2="64.2126">
		<stop  offset="0" style="stop-color:#B5AC49"/>
		<stop  offset="1" style="stop-color:#3CA55C"/>
	</linearGradient>
	<path class="st16" d="M84.2,66h3.6c1,0,1.8-0.8,1.8-1.8c0-1-0.8-1.8-1.8-1.8h-3.6c-1,0-1.8,0.8-1.8,1.8C82.4,65.2,83.2,66,84.2,66z
		"/>
	<linearGradient id="SVGID_18_" gradientUnits="userSpaceOnUse" x1="33.4108" y1="113.2174" x2="40.6708" y2="113.2174">
		<stop  offset="0" style="stop-color:#B5AC49"/>
		<stop  offset="1" style="stop-color:#3CA55C"/>
	</linearGradient>
	<path class="st17" d="M35.2,115h3.6c1,0,1.8-0.8,1.8-1.8s-0.8-1.8-1.8-1.8h-3.6c-1,0-1.8,0.8-1.8,1.8S34.2,115,35.2,115z"/>
	<linearGradient id="SVGID_19_" gradientUnits="userSpaceOnUse" x1="33.4108" y1="107.7725" x2="40.6708" y2="107.7725">
		<stop  offset="0" style="stop-color:#B5AC49"/>
		<stop  offset="1" style="stop-color:#3CA55C"/>
	</linearGradient>
	<path class="st18" d="M35.2,109.6h3.6c1,0,1.8-0.8,1.8-1.8s-0.8-1.8-1.8-1.8h-3.6c-1,0-1.8,0.8-1.8,1.8S34.2,109.6,35.2,109.6z"/>
	<linearGradient id="SVGID_20_" gradientUnits="userSpaceOnUse" x1="44.3008" y1="113.2174" x2="51.5607" y2="113.2174">
		<stop  offset="0" style="stop-color:#B5AC49"/>
		<stop  offset="1" style="stop-color:#3CA55C"/>
	</linearGradient>
	<path class="st19" d="M46.1,115h3.6c1,0,1.8-0.8,1.8-1.8s-0.8-1.8-1.8-1.8h-3.6c-1,0-1.8,0.8-1.8,1.8S45.1,115,46.1,115z"/>
	<linearGradient id="SVGID_21_" gradientUnits="userSpaceOnUse" x1="44.3008" y1="107.7725" x2="51.5607" y2="107.7725">
		<stop  offset="0" style="stop-color:#B5AC49"/>
		<stop  offset="1" style="stop-color:#3CA55C"/>
	</linearGradient>
	<path class="st20" d="M46.1,109.6h3.6c1,0,1.8-0.8,1.8-1.8s-0.8-1.8-1.8-1.8h-3.6c-1,0-1.8,0.8-1.8,1.8S45.1,109.6,46.1,109.6z"/>
	<linearGradient id="SVGID_22_" gradientUnits="userSpaceOnUse" x1="109.6405" y1="113.2174" x2="116.9004" y2="113.2174">
		<stop  offset="0" style="stop-color:#B5AC49"/>
		<stop  offset="1" style="stop-color:#3CA55C"/>
	</linearGradient>
	<path class="st21" d="M115.1,111.4h-3.6c-1,0-1.8,0.8-1.8,1.8s0.8,1.8,1.8,1.8h3.6c1,0,1.8-0.8,1.8-1.8S116.1,111.4,115.1,111.4z"
		/>
	<linearGradient id="SVGID_23_" gradientUnits="userSpaceOnUse" x1="109.6405" y1="107.7725" x2="116.9004" y2="107.7725">
		<stop  offset="0" style="stop-color:#B5AC49"/>
		<stop  offset="1" style="stop-color:#3CA55C"/>
	</linearGradient>
	<path class="st22" d="M115.1,106h-3.6c-1,0-1.8,0.8-1.8,1.8s0.8,1.8,1.8,1.8h3.6c1,0,1.8-0.8,1.8-1.8S116.1,106,115.1,106z"/>
	<linearGradient id="SVGID_24_" gradientUnits="userSpaceOnUse" x1="98.7505" y1="107.7725" x2="106.0105" y2="107.7725">
		<stop  offset="0" style="stop-color:#B5AC49"/>
		<stop  offset="1" style="stop-color:#3CA55C"/>
	</linearGradient>
	<path class="st23" d="M104.2,106h-3.6c-1,0-1.8,0.8-1.8,1.8s0.8,1.8,1.8,1.8h3.6c1,0,1.8-0.8,1.8-1.8S105.2,106,104.2,106z"/>
	<linearGradient id="SVGID_25_" gradientUnits="userSpaceOnUse" x1="98.7505" y1="113.2174" x2="106.0105" y2="113.2174">
		<stop  offset="0" style="stop-color:#B5AC49"/>
		<stop  offset="1" style="stop-color:#3CA55C"/>
	</linearGradient>
	<path class="st24" d="M104.2,111.4h-3.6c-1,0-1.8,0.8-1.8,1.8s0.8,1.8,1.8,1.8h3.6c1,0,1.8-0.8,1.8-1.8S105.2,111.4,104.2,111.4z"
		/>
</g>
</svg>
