<?xml version="1.0" encoding="utf-8"?>
<!-- Generator: Adobe Illustrator 22.1.0, SVG Export Plug-In . SVG Version: 6.00 Build 0)  -->
<svg version="1.1" id="Layer_1" xmlns="http://www.w3.org/2000/svg" xmlns:xlink="http://www.w3.org/1999/xlink" x="0px" y="0px"
	 viewBox="0 0 51.7 63" style="enable-background:new 0 0 51.7 63;" xml:space="preserve">
<style type="text/css">
	.st0{fill:url(#SVGID_1_);}
</style>
<linearGradient id="SVGID_1_" gradientUnits="userSpaceOnUse" x1="4.0649" y1="31.5601" x2="47.4455" y2="31.5601">
	<stop  offset="0" style="stop-color:#B5AC49"/>
	<stop  offset="1" style="stop-color:#3CA55C"/>
</linearGradient>
<path class="st0" d="M24.2,48.5v-2.9h23.2v-1c0-7.8-6.4-14.2-14.2-14.2c-3.3,0-6.5,1.2-9,3.2v-2.1c0-1.1-0.2-2.1-0.5-3.1
	c-0.3-1-0.8-2-1.5-2.8c-0.7-0.9-1.3-2-1.7-3c-0.4-1-0.7-2.1-0.8-3.2L18.3,7.8H20v-3c0-0.9-0.4-1.8-1-2.4s-1.5-1-2.4-1h-4.8
	c-0.9,0-1.8,0.4-2.4,1c-0.6,0.6-1,1.5-1,2.4v3H10L8.5,19.4c-0.1,1.1-0.4,2.2-0.8,3.2c-0.4,1-1,2.1-1.7,3c-0.6,0.9-1.1,1.8-1.5,2.8
	c-0.3,1-0.5,2.1-0.5,3.1v5.3v11.5v10.4c0,0.7,0.3,1.4,0.8,2c0.5,0.5,1.2,0.8,2,0.8h14.6c0.5,0,1.1-0.2,1.5-0.4
	c0.7,0.3,1.5,0.4,2.3,0.4h15.9c1.7,0,3.2-0.7,4.4-1.8c1.2-1.2,1.8-2.8,1.8-4.4v-2H24.2v-0.8c0.1,0,0.1,0,0.1,0
	c1.7,0,3.2-1.4,3.2-3.2c0-0.7,0.6-1.3,1.3-1.3c0.7,0,1.3,0.6,1.3,1.3c0,1.7,1.4,3.2,3.2,3.2c1.7,0,3.2-1.4,3.2-3.2
	c0-0.7,0.6-1.3,1.2-1.3c0.7,0,1.3,0.6,1.3,1.3c0,1.7,1.4,3.2,3.2,3.2c1.7,0,3.2-1.4,3.2-3.2c0-0.7,0.6-1.3,1.2-1.3v-1.9
	c-1.7,0-3.2,1.4-3.2,3.2c0,0.7-0.6,1.3-1.3,1.3c-0.7,0-1.3-0.6-1.3-1.3c0-1.7-1.4-3.2-3.2-3.2c-1.7,0-3.2,1.4-3.2,3.2
	c0,0.7-0.6,1.3-1.3,1.3S32,50.2,32,49.5c0-1.7-1.4-3.2-3.2-3.2s-3.2,1.4-3.2,3.2c0,0.7-0.6,1.3-1.3,1.3c-0.1,0-0.1,0-0.1,0
	L24.2,48.5L24.2,48.5z M33.2,32.3c6.5,0,11.8,5,12.3,11.4H24.2v-6.7l0,0v-0.7C26.6,33.8,29.8,32.3,33.2,32.3z M10.2,4.8
	c0-0.4,0.2-0.8,0.4-1.1c0.3-0.3,0.7-0.4,1-0.4h4.8c0.4,0,0.8,0.2,1.1,0.4c0.3,0.3,0.4,0.7,0.4,1.1v1.1h-7.8V4.8z M16.4,7.8l1.3,10.8
	h-7.2l1.3-10.8C11.9,7.8,16.4,7.8,16.4,7.8z M6,31.6c0-0.9,0.1-1.7,0.4-2.5c0.3-0.8,0.7-1.6,1.2-2.3c0.8-1.1,1.5-2.3,1.9-3.5
	c0.4-0.9,0.6-1.9,0.8-2.9H18c0.2,1,0.4,1.9,0.8,2.9c0.5,1.2,1.1,2.4,1.9,3.5c0.5,0.7,0.9,1.5,1.2,2.3c0.3,0.8,0.4,1.7,0.4,2.5v5.3H6
	V31.6z M22.3,38.9v7.7H6v-7.7H22.3z M45.5,55.3v0.1c0,1.2-0.5,2.3-1.3,3.1c-0.8,0.8-1.9,1.3-3.1,1.3H25.3c-0.4,0-0.8-0.1-1.1-0.2
	c0.1-0.2,0.1-0.5,0.1-0.7v-3.6L45.5,55.3L45.5,55.3L45.5,55.3z M22.3,58.9c0,0.2-0.1,0.5-0.3,0.6c-0.2,0.2-0.4,0.3-0.6,0.3H6.8
	c-0.2,0-0.5-0.1-0.6-0.3C6.1,59.4,6,59.2,6,58.9V48.5h16.3L22.3,58.9L22.3,58.9z"/>
</svg>
