<?xml version="1.0" encoding="utf-8"?>
<!-- Generator: Adobe Illustrator 22.1.0, SVG Export Plug-In . SVG Version: 6.00 Build 0)  -->
<svg version="1.1" id="Layer_1" xmlns="http://www.w3.org/2000/svg" xmlns:xlink="http://www.w3.org/1999/xlink" x="0px" y="0px"
	 viewBox="0 0 64 61.8" style="enable-background:new 0 0 64 61.8;" xml:space="preserve">
<style type="text/css">
	.st0{fill:url(#SVGID_1_);}
	.st1{fill:url(#SVGID_2_);}
	.st2{fill:url(#SVGID_3_);}
	.st3{fill:url(#SVGID_4_);}
	.st4{fill:url(#SVGID_5_);}
	.st5{fill:url(#SVGID_6_);}
	.st6{fill:url(#SVGID_7_);}
	.st7{fill:url(#SVGID_8_);}
</style>
<title>Bag-bank-dollars-money</title>
<g>
	<linearGradient id="SVGID_1_" gradientUnits="userSpaceOnUse" x1="2.14" y1="34" x2="53.86" y2="34">
		<stop  offset="0" style="stop-color:#B5AC49"/>
		<stop  offset="1" style="stop-color:#3CA55C"/>
	</linearGradient>
	<path class="st0" d="M2.1,22v24c0,0.5,0.4,0.9,0.9,0.9h34c0.5,0,0.9-0.4,0.9-0.9s-0.4-0.9-0.9-0.9H3.9V22.9h48.3V25
		c0,0.5,0.4,0.9,0.9,0.9s0.9-0.4,0.9-0.9v-3c0-0.5-0.4-0.9-0.9-0.9H3C2.5,21.1,2.1,21.5,2.1,22z"/>
	<linearGradient id="SVGID_2_" gradientUnits="userSpaceOnUse" x1="4.1382" y1="13.493" x2="47.854" y2="13.493">
		<stop  offset="0" style="stop-color:#B5AC49"/>
		<stop  offset="1" style="stop-color:#3CA55C"/>
	</linearGradient>
	<path class="st1" d="M4.8,18.8c0.5,0.1,0.9-0.2,1-0.6L7.7,10l39.2,8.8H47c0.4,0,0.8-0.3,0.8-0.7c0.1-0.5-0.2-0.9-0.7-1l-40-9
		c-0.2,0-0.5,0-0.7,0.1C6.3,8.4,6.2,8.6,6.2,8.8l-2,9C4.1,18.3,4.3,18.7,4.8,18.8z"/>
	<linearGradient id="SVGID_3_" gradientUnits="userSpaceOnUse" x1="15.161" y1="8.0005" x2="42.8503" y2="8.0005">
		<stop  offset="0" style="stop-color:#B5AC49"/>
		<stop  offset="1" style="stop-color:#3CA55C"/>
	</linearGradient>
	<path class="st2" d="M18.3,2.2c-0.4-0.2-0.9,0-1.1,0.4l-2,4c-0.2,0.4,0,0.9,0.5,1.1c0.4,0.2,0.9,0,1.1-0.4l1.6-3.3l23.3,9.7
		c0.1,0,0.2,0.1,0.3,0.1c0.5,0,0.9-0.4,0.9-0.9c0-0.3-0.2-0.6-0.5-0.8L18.3,2.2z"/>
	<linearGradient id="SVGID_4_" gradientUnits="userSpaceOnUse" x1="36.1408" y1="26" x2="46.86" y2="26">
		<stop  offset="0" style="stop-color:#B5AC49"/>
		<stop  offset="1" style="stop-color:#3CA55C"/>
	</linearGradient>
	<path class="st3" d="M46.9,26c0-0.5-0.4-0.9-0.9-0.9h-9c-0.5,0-0.9,0.4-0.9,0.9c0,0.5,0.4,0.9,0.9,0.9h9
		C46.5,26.9,46.9,26.5,46.9,26z"/>
	<linearGradient id="SVGID_5_" gradientUnits="userSpaceOnUse" x1="18.2" y1="34" x2="35.8" y2="34">
		<stop  offset="0" style="stop-color:#B5AC49"/>
		<stop  offset="1" style="stop-color:#3CA55C"/>
	</linearGradient>
	<path class="st4" d="M27,42.8c4.9,0,8.8-3.9,8.8-8.8c0-4.9-3.9-8.8-8.8-8.8s-8.8,3.9-8.8,8.8l0,0C18.2,38.9,22.1,42.8,27,42.8z
		 M27,26.8c4,0,7.2,3.2,7.2,7.2S31,41.2,27,41.2S19.8,38,19.8,34C19.8,30,23,26.8,27,26.8z"/>
	<linearGradient id="SVGID_6_" gradientUnits="userSpaceOnUse" x1="40" y1="44" x2="62" y2="44">
		<stop  offset="0" style="stop-color:#B5AC49"/>
		<stop  offset="1" style="stop-color:#3CA55C"/>
	</linearGradient>
	<path class="st5" d="M51,60c5.3,0,11-1.2,11-4V32c0-2.8-5.7-4-11-4s-11,1.2-11,4v24C40,58.8,45.7,60,51,60z M51,58
		c-5.8,0-8.8-1.5-9-2v-1.6c2.1,1.1,5.6,1.6,9,1.6s6.9-0.5,9-1.6V56C59.8,56.5,56.8,58,51,58z M60,36c-0.2,0.6-3.2,2-9,2
		s-8.8-1.5-9-2v-1.6c2.1,1.1,5.6,1.6,9,1.6s6.9-0.5,9-1.6V36z M51,40c3.4,0,6.9-0.5,9-1.6V40c-0.2,0.6-3.2,2-9,2s-8.8-1.5-9-2v-1.6
		C44.1,39.5,47.6,40,51,40z M51,44c3.4,0,6.9-0.5,9-1.6V44c-0.2,0.6-3.2,2-9,2s-8.8-1.5-9-2v-1.6C44.1,43.5,47.6,44,51,44z M51,48
		c3.4,0,6.9-0.5,9-1.6V48c-0.2,0.6-3.2,2-9,2s-8.8-1.5-9-2v-1.6C44.1,47.5,47.6,48,51,48z M51,52c3.4,0,6.9-0.5,9-1.6V52
		c-0.2,0.6-3.2,2-9,2s-8.8-1.5-9-2v-1.6C44.1,51.5,47.6,52,51,52z M51,30c5.8,0,8.8,1.4,9,2c-0.2,0.6-3.2,2-9,2s-8.8-1.5-9-2l0,0
		C42.2,31.5,45.2,30,51,30z"/>
	<linearGradient id="SVGID_7_" gradientUnits="userSpaceOnUse" x1="6.14" y1="34" x2="19.86" y2="34">
		<stop  offset="0" style="stop-color:#B5AC49"/>
		<stop  offset="1" style="stop-color:#3CA55C"/>
	</linearGradient>
	<path class="st6" d="M11.8,26.9H19c0.5,0,0.9-0.4,0.9-0.9c0-0.5-0.4-0.9-0.9-0.9h-7.5c-0.2,0-0.4,0.1-0.6,0.2l-4.5,4.3
		c-0.2,0.2-0.3,0.4-0.3,0.7v7.1c0,0.2,0.1,0.4,0.2,0.6l4.1,4.5c0.2,0.2,0.4,0.3,0.6,0.3H19c0.5,0,0.9-0.4,0.9-0.9s-0.4-0.9-0.9-0.9
		h-7.6l-3.6-3.9v-6.5L11.8,26.9z"/>
	<linearGradient id="SVGID_8_" gradientUnits="userSpaceOnUse" x1="24" y1="34" x2="30" y2="34">
		<stop  offset="0" style="stop-color:#B5AC49"/>
		<stop  offset="1" style="stop-color:#3CA55C"/>
	</linearGradient>
	<path class="st7" d="M27.5,35.5H25c-0.6,0-1,0.4-1,1s0.4,1,1,1h1c0,0.6,0.4,1,1,1s1-0.4,1-1l0,0c1.1-0.1,2-1.1,2-2.2
		c0-1.3-1.2-2.3-2.5-2.3c0,0,0,0,0,0h-1c-0.3,0-0.5-0.2-0.5-0.2s0.2-0.2,0.5-0.2H29c0.6,0,1-0.4,1-1s-0.4-1-1-1h-1c0-0.6-0.4-1-1-1
		s-1,0.4-1,1v0c-1.1,0.1-2,1.1-2,2.2c0.1,1.3,1.2,2.3,2.5,2.2h1c0.3,0,0.5,0.2,0.5,0.2S27.8,35.5,27.5,35.5z"/>
</g>
</svg>
